<svg xmlns="http://www.w3.org/2000/svg" viewBox="0 0 512 512"><path d="M493.71 512h-75.07a18.28 18.28 0 0 1-18.28-18.29v-19.24H111.64v19.24A18.28 18.28 0 0 1 93.36 512H18.29A18.29 18.29 0 0 1 0 493.71v-75.06a18.28 18.28 0 0 1 18.29-18.28h19.25V111.64H18.29A18.28 18.28 0 0 1 0 93.36V18.29A18.29 18.29 0 0 1 18.29 0h75.07a18.28 18.28 0 0 1 18.28 18.29v19.25h288.72V18.29A18.28 18.28 0 0 1 418.64 0h75.07A18.29 18.29 0 0 1 512 18.29v75.07a18.28 18.28 0 0 1-18.29 18.28h-19.25v288.73h19.25A18.28 18.28 0 0 1 512 418.65v75.06A18.29 18.29 0 0 1 493.71 512Zm-56.78-36.57h38.5v-38.49h-38.5Zm-400.36 0h38.5v-38.49h-38.5Zm75.07-37.53h288.72v-19.25a18.27 18.27 0 0 1 18.28-18.28h19.25V111.64h-19.25a18.27 18.27 0 0 1-18.28-18.28V74.11H111.64v19.25a18.27 18.27 0 0 1-18.28 18.28H74.11v288.73h19.25a18.27 18.27 0 0 1 18.28 18.28ZM436.93 75.07h38.5v-38.5h-38.5Zm-400.36 0h38.5v-38.5h-38.5Zm313 323.39a18.28 18.28 0 0 1-18.28-18.29V172.56a18.29 18.29 0 0 1 36.57 0v207.61a18.29 18.29 0 0 1-18.29 18.29Zm-62.09 0a18.28 18.28 0 0 1-18.28-18.29V270.92a18.29 18.29 0 1 1 36.57 0v109.25a18.29 18.29 0 0 1-18.29 18.29Zm-62.09 0a18.28 18.28 0 0 1-18.28-18.29V225a18.29 18.29 0 1 1 36.57 0v155.17a18.29 18.29 0 0 1-18.29 18.29Zm-62.07 0A18.28 18.28 0 0 1 145 380.17V131.84a18.29 18.29 0 1 1 36.57 0v248.33a18.29 18.29 0 0 1-18.25 18.29Z"/></svg>
