<svg xmlns="http://www.w3.org/2000/svg" viewBox="0 0 512 512"><path d="M107.43 512a18.29 18.29 0 0 1-18.29-18.29v-102H60.63C27.2 391.69 0 363.24 0 328.29V63.41C0 28.45 27.2 0 60.63 0h390.73C484.8 0 512 28.45 512 63.41v264.88c0 34.95-27.2 63.4-60.64 63.4h-201.5L119.57 507.38a18.23 18.23 0 0 1-12.14 4.62ZM60.63 36.57c-13.27 0-24.06 12-24.06 26.84v264.88c0 14.79 10.79 26.83 24.06 26.83h46.8a18.27 18.27 0 0 1 18.28 18.28V453l105.06-93.29a18.27 18.27 0 0 1 12.14-4.61h208.45c13.27 0 24.07-12 24.07-26.83V63.41c0-14.8-10.8-26.84-24.07-26.84Zm338 236.43H113.36a18.29 18.29 0 1 1 0-36.58h285.27a18.29 18.29 0 0 1 0 36.58Zm0-59H113.36a18.29 18.29 0 1 1 0-36.57h285.27a18.29 18.29 0 0 1 0 36.57Zm0-59H113.36a18.29 18.29 0 1 1 0-36.57h285.27a18.29 18.29 0 0 1 0 36.57Z"/></svg>
