<svg xmlns="http://www.w3.org/2000/svg" viewBox="0 0 512 512"><path d="M256 512a18.21 18.21 0 0 1-9.07-2.42L9.22 373.75A18.28 18.28 0 0 1 27.36 342L256 472.65 484.64 342a18.28 18.28 0 0 1 18.14 31.75L265.07 509.58A18.24 18.24 0 0 1 256 512Zm0-101.89a18.2 18.2 0 0 1-9.07-2.41L9.22 271.87a18.28 18.28 0 1 1 18.14-31.74L256 370.77l228.64-130.64a18.28 18.28 0 0 1 18.14 31.74L265.07 407.7a18.23 18.23 0 0 1-9.07 2.41Zm0-101.87a18.2 18.2 0 0 1-9.07-2.41L9.22 170a18.28 18.28 0 0 1 0-31.75L246.93 2.42a18.24 18.24 0 0 1 18.14 0l237.71 135.82a18.29 18.29 0 0 1 0 31.75L265.07 305.83a18.23 18.23 0 0 1-9.07 2.41ZM55.15 154.12 256 268.89l200.85-114.77L256 39.35Z"/></svg>
