<svg xmlns="http://www.w3.org/2000/svg" viewBox="0 0 512 512"><path d="M18.87 512A18.29 18.29 0 0 1 .59 493.74L0 18.31A18.28 18.28 0 0 1 18.27 0a18.29 18.29 0 0 1 18.3 18.26l.57 457.15 456.56-.5a18.29 18.29 0 0 1 0 36.57L18.89 512Zm350.74-74.6a18.25 18.25 0 0 1-14.34-6.94l-80.72-102.12-78.37 74.72a18.23 18.23 0 0 1-14.57 4.94L76.32 396.69a18.28 18.28 0 0 1 3.89-36.36l96.86 10.41L263.84 288a18.28 18.28 0 0 1 27 1.89l77.91 98.57 109.68-156.9a18.28 18.28 0 1 1 30 21L384.59 429.6a18.26 18.26 0 0 1-14.45 7.79ZM186.68 312.88a18.36 18.36 0 0 1-7.84-1.76L70.27 259.64a18.29 18.29 0 0 1 15.68-33L183.7 273l87.76-76.41a18.31 18.31 0 0 1 21.18-2l81 47 106.82-105.33a18.29 18.29 0 1 1 25.68 26.05l-116.77 115a18.31 18.31 0 0 1-22 2.8l-81.75-47.41-86.93 75.68a18.24 18.24 0 0 1-12.01 4.5Z"/></svg>
