<?xml version="1.0" encoding="UTF-8"?>
<svg id="Layer_1" data-name="Layer 1" xmlns="http://www.w3.org/2000/svg" viewBox="0 0 512 512">
  <path d="m109.31,406.47c-6.53,0-12.66-4.02-15.03-10.51l-50.21-137.31c-3.03-8.3,1.23-17.49,9.53-20.52,8.3-3.04,17.49,1.23,20.52,9.53l50.21,137.31c3.03,8.3-1.23,17.49-9.53,20.52-1.81.66-3.67.98-5.49.98Z"/>
  <path d="m98.84,407.21c-37.5,0-72.14-23.57-85.3-59.56-7.19-19.66-7.35-41.35-.45-61.08,6.81-19.44,20.13-36.13,37.52-47,.46-.29.93-.55,1.41-.79,91.25-44.9,158.38-100.94,198.63-140.05,43.73-42.49,66.1-74.77,66.32-75.09,3.6-5.23,9.95-7.85,16.19-6.65,6.24,1.19,11.18,5.95,12.6,12.14.97,4.22.19,8.7-2.16,12.33-4.55,7.02-7.89,26.93-3.59,61.73,4.14,33.48,14.53,74.09,29.26,114.36h0c14.73,40.28,33,78.02,51.44,106.28,19.17,29.38,34.56,42.43,42.56,44.85,6.75,2.04,11.37,8.26,11.37,15.31,0,4.99-2.33,9.71-6.3,12.73-3.97,3.03-9.13,4.03-13.94,2.7-.36-.1-38.27-10.33-99.1-14.58-55.98-3.92-143.43-3.42-242.12,21.14-.52.13-1.05.23-1.59.31-4.27.61-8.53.91-12.75.91Zm-31.9-140.09c-22.93,14.74-32.74,43.86-23.34,69.54,9.39,25.68,35.67,41.6,62.69,38.06,102.84-25.48,193.9-25.89,252.26-21.73,17.59,1.25,33.31,2.97,46.87,4.8-3.79-5.06-7.62-10.56-11.49-16.49-20.02-30.67-38.93-69.67-54.7-112.78-15.77-43.1-26.47-85.09-30.96-121.43-.87-7.04-1.49-13.72-1.86-20.04-9.18,10.15-20.08,21.6-32.71,33.91-41.9,40.82-111.74,99.26-206.75,146.14Z"/>
  <path d="m368.16,273.98c-6.22,0-12.1-3.65-14.7-9.67-4.95-11.48-9.73-23.51-14.22-35.76-4.46-12.19-8.57-24.48-12.22-36.53-2.46-8.12,1.85-16.75,9.83-19.66l19.63-7.17c13.43-4.92,27.98-4.31,40.96,1.72,12.98,6.03,22.84,16.75,27.76,30.2h0c10.13,27.75-4.19,58.58-31.93,68.73l-19.62,7.17c-1.81.66-3.66.98-5.49.98Zm-5.96-76.82c2.23,6.78,4.6,13.6,7.08,20.38,2.5,6.81,5.09,13.55,7.75,20.16l5.24-1.92c11.17-4.09,16.94-16.5,12.86-27.68h0c-1.98-5.42-5.95-9.74-11.18-12.17-5.23-2.43-11.09-2.67-16.5-.69l-5.26,1.92Z"/>
  <path d="m464.88,401.11c-18.73,0-39.62-15.8-62.29-47.15-22.82-31.57-45.33-76.11-63.37-125.42-18.03-49.31-29.58-97.87-32.5-136.72-3.5-46.52,5.62-74.09,27.11-81.94,21.49-7.86,46.24,7.32,73.57,45.12,22.82,31.57,45.33,76.11,63.37,125.43h0c18.03,49.31,29.58,97.87,32.5,136.72,3.5,46.52-5.61,74.09-27.1,81.95-3.67,1.34-7.43,2.01-11.29,2.01ZM345.13,39.91c-.13,0-.25.01-.35.03-2.04,1.15-9.27,13.5-5.92,52.32,3.07,35.54,13.87,80.04,30.42,125.28,16.55,45.25,37.01,86.22,57.59,115.35,22.49,31.83,35.97,36.58,38.35,36.13,2.03-1.15,9.26-13.49,5.91-52.3-3.07-35.55-13.87-80.05-30.42-125.31-16.55-45.26-37.01-86.22-57.6-115.36-21.56-30.51-34.84-36.15-38-36.15Z"/>
  <path d="m233.37,504.06c-18.19,0-35.32-11.22-41.93-29.26l-33.59-91.85c-1.64-4.48-1.19-9.46,1.22-13.58s6.53-6.95,11.24-7.71c19.98-3.26,39.95-5.78,59.35-7.49,7.21-.64,13.95,3.64,16.43,10.44l29.1,79.55c8.43,23.1-3.48,48.75-26.56,57.19-5.03,1.84-10.19,2.71-15.26,2.71Zm-38.74-113.71l26.86,73.45c2.38,6.51,9.63,9.88,16.15,7.5,6.51-2.38,9.87-9.63,7.49-16.15l-24.85-67.92c-8.48.89-17.04,1.93-25.65,3.13Z"/>
</svg>