<svg xmlns="http://www.w3.org/2000/svg" viewBox="0 0 512 512"><path d="M55.93 433C25.09 433 0 408.1 0 377.53V55.46C0 24.87 25.09 0 55.93 0H357.2c30.85 0 55.94 24.87 55.94 55.46a18.29 18.29 0 0 1-36.57 0 19.15 19.15 0 0 0-19.37-18.89H55.93a19.15 19.15 0 0 0-19.36 18.89v322.07a19.14 19.14 0 0 0 19.36 18.87 18.29 18.29 0 0 1 0 36.57ZM512 456.28V131.79c0-30.72-26.12-55.72-58.23-55.72H134.29c-32.11 0-58.24 25-58.24 55.72v324.49c0 30.72 26.13 55.72 58.24 55.72h319.48c32.11 0 58.23-25 58.23-55.72Zm-58.23-343.64c11.75 0 21.66 8.77 21.66 19.15v324.49c0 10.38-9.91 19.15-21.66 19.15H134.29c-11.75 0-21.67-8.77-21.67-19.15V131.79c0-10.38 9.92-19.15 21.67-19.15Zm-32.45 252.14A18.28 18.28 0 0 0 403 346.49H185a18.29 18.29 0 1 0 0 36.57h218a18.28 18.28 0 0 0 18.32-18.28Zm0 49.17A18.28 18.28 0 0 0 403 395.66H185a18.29 18.29 0 1 0 0 36.57h218A18.28 18.28 0 0 0 421.32 414ZM320.77 304V186.5a18.29 18.29 0 0 0-18.29-18.29H185a18.29 18.29 0 0 0-18.29 18.29V304A18.29 18.29 0 0 0 185 322.26h117.48A18.29 18.29 0 0 0 320.77 304ZM203.3 204.79h80.9v80.9h-80.9Zm0 26.26a18.28 18.28 0 0 0-18.3-18.28H94.34a18.29 18.29 0 1 0 0 36.57H185a18.28 18.28 0 0 0 18.3-18.29Zm308.7 0a18.28 18.28 0 0 0-18.29-18.28H302.48a18.29 18.29 0 0 0 0 36.57h191.23A18.29 18.29 0 0 0 512 231.05Z"/></svg>
