<svg xmlns="http://www.w3.org/2000/svg" viewBox="0 0 512 512"><path d="M256 511.86a31.35 31.35 0 0 1-22.39-9.26L178.93 448c-14.54-14.53-22.29-16.21-26.86-16.21-9.89 0-15.27 8-24.28 27.16-5 10.63-10.63 22.57-19.25 32.2l-2.54 2.6c-23.31 23.27-64.25 23.4-87.81-.1a62.27 62.27 0 0 1 0-87.95l2.11-2c10.06-9 21.89-14.59 32.34-19.53 15.54-7.31 25.63-12.7 27.23-21.9 1.38-7.86-3.57-16.92-16-29.39L9.21 278.23a31.8 31.8 0 0 1 0-44.78l53.23-53.22c.45-.45.93-.88 1.43-1.29 12.75-13.13 17.34-21.85 16-29.51-1.57-9.18-11.66-14.56-26.87-21.72-10.75-5.09-22.68-10.71-32.25-19.32l-2.32-2.16a62.3 62.3 0 0 1-.23-88.14c23.59-23.55 64.39-23.5 87.93 0l2.08 2.22c9 10 14.61 21.95 19.59 32.53C136.82 72 142.18 80 152.07 80c4.54 0 12.23-1.65 26.59-15.93l55-54.94c11.85-11.91 32.87-11.93 44.76 0l54.66 54.65C347.59 78.29 355.34 80 359.91 80c9.89 0 15.25-8 24.29-27.15 4.94-10.54 10.55-22.49 19.23-32.17l2.68-2.81c23-23 64.18-23.27 87.68.23a62.14 62.14 0 0 1 0 87.94c-.45.49-1.29 1.27-2.18 2.07-9.89 8.88-21.77 14.5-32.25 19.45-15.52 7.28-25.61 12.65-27.21 21.9-1.38 7.86 3.53 16.91 15.94 29.33l54.72 54.71a31.82 31.82 0 0 1 0 44.76l-55.16 54.87c-11.46 11.4-29.36 26.56-52.36 26.56-34.71 0-48.89-30.13-57.37-48.13-4.11-8.74-8.34-17.74-13.43-23.4l-1.36-1.44c-9-8.93-26.11-9.32-35.89.38a25.6 25.6 0 0 0 0 36.18c6.71 6.07 15.66 10.29 24.32 14.37 17.11 8.07 42.57 20.07 47.55 48.65 4.64 26.73-12.25 47.43-25.36 60.68l-55.32 55.62a31.28 31.28 0 0 1-22.43 9.26Zm-3.55-35.05Zm7-.07ZM38.55 255.86 89.75 307c8.59 8.6 31.39 31.44 26.18 61.5-5 28.63-30.5 40.63-47.38 48.57-8.85 4.19-17.76 8.4-23.39 13.43-11.07 11-11.07 27.25-1.11 37.25 9.72 9.64 26.54 9.67 36.22 0 6.09-6.73 10.32-15.7 14.41-24.39 8.5-18.07 22.7-48.21 57.39-48.21 17.84 0 34.11 8.3 52.72 26.92L256 473.26l51.77-52.05c11.91-12 16.64-20.89 15.29-28.66-1.59-9.18-11.68-14.56-26.86-21.71-10.79-5.1-22.72-10.72-32.29-19.32l-2.12-2a62.36 62.36 0 0 1-.43-88.33c23.62-23.55 64.41-23.49 87.93 0l2.09 2.21c9 10 14.6 22 19.59 32.54 9 19.16 14.37 27.16 24.26 27.16 4.54 0 12.24-1.65 26.59-15.92l51.61-51.33-51.23-51.23c-8.59-8.58-31.38-31.4-26.13-61.48 5-28.67 30.54-40.65 47.43-48.57 8.82-4.17 17.73-8.38 23.36-13.42 5.91-5.86 8.57-12.28 8.57-19.11a25.37 25.37 0 0 0-7.5-18.04c-9.68-9.68-26.54-9.68-36.22 0-6.14 6.8-10.33 15.76-14.41 24.41-8.51 18.07-22.71 48.19-57.39 48.19-17.84 0-34.11-8.3-52.71-26.92L256 38.44 204.48 90c-11.5 11.43-29.41 26.59-52.39 26.59-34.71 0-48.89-30.12-57.38-48.13-4.1-8.78-8.33-17.78-13.42-23.46l-1.36-1.45C71 34.64 53.8 34.25 44 44a25.61 25.61 0 0 0 0 36.18c6.72 6.07 15.66 10.3 24.33 14.38 17.1 8.06 42.57 20.06 47.55 48.64 4.64 26.71-12.23 47.42-25.32 60.68l-.13.28a17.94 17.94 0 0 1-3.43 3.23Zm438.38 3.49Zm-441.84 0ZM252.52 35Zm7 0Z"/></svg>
