<svg xmlns="http://www.w3.org/2000/svg" viewBox="0 0 512 512"><path d="M256 512C114.85 512 0 397.16 0 256S114.85 0 256 0s256 114.84 256 256-114.85 256-256 256Zm-134.35-86.18a216.24 216.24 0 0 0 267.08 1.27C375.14 364.66 319.17 319.53 255 319.53c-63.61 0-119.31 45.05-133.35 106.29Zm201.87-131.73a177.14 177.14 0 0 1 97.27 102.36A215.63 215.63 0 0 0 472.62 256c0-119.44-97.18-216.62-216.62-216.62S39.39 136.56 39.39 256a215.62 215.62 0 0 0 50.53 138.92 178.44 178.44 0 0 1 96.75-100.75 105.05 105.05 0 1 1 136.85-.08ZM255 148.82a65.66 65.66 0 1 0 65.67 65.66A65.73 65.73 0 0 0 255 148.82Z"/></svg>
