<svg xmlns="http://www.w3.org/2000/svg" fill="none" viewBox="0 0 48 48">
  <g clip-path="url(#a)">
    <path fill="#FF492C" fill-rule="evenodd" d="M48 24c0 13.255-10.745 24-24 24S0 37.255 0 24 10.745 0 24 0s24 10.745 24 24Z" clip-rule="evenodd"/>
    <path fill="#fff" fill-rule="evenodd" d="M16.407 24c0 4.32 3.517 7.834 7.84 7.834 1.95 0 3.735-.716 5.108-1.898l2.972 5.145a13.664 13.664 0 0 1-8.08 2.63c-7.577 0-13.72-6.139-13.72-13.711s6.143-13.71 13.72-13.71c.92 0 1.816.09 2.684.263l-2.684 5.613c-4.323 0-7.84 3.514-7.84 7.834Zm17.994-5.62H30.3c.111-.642.508-1.001 1.313-1.409l.756-.383c1.351-.692 2.07-1.471 2.07-2.745 0-.803-.31-1.434-.93-1.891-.607-.458-1.35-.68-2.206-.68-.681 0-1.3.173-1.87.531-.558.346-.98.791-1.24 1.348l1.19 1.187c.458-.927 1.128-1.385 2.007-1.385.744 0 1.203.383 1.203.915 0 .445-.224.816-1.079 1.249l-.483.234c-1.053.532-1.784 1.138-2.206 1.83-.421.68-.632 1.558-.632 2.609v.284h6.208V18.38Zm-.557 3.657h-6.78l-3.391 5.874h6.78l3.391 5.873 3.39-5.873-3.39-5.874Z" clip-rule="evenodd"/>
  </g>
  <defs>
    <clipPath id="a">
      <path fill="#fff" d="M0 0h48v48H0z"/>
    </clipPath>
  </defs>
</svg>