<svg width="20" height="20" viewBox="0 0 20 20" fill="none" xmlns="http://www.w3.org/2000/svg">
<path d="M10 2C14.4182 2 18 5.58176 18 10C18 14.4182 14.4182 18 10 18C5.58176 18 2 14.4182 2 10C2 5.58176 5.58176 2 10 2ZM10.0811 5.42871C7.55653 5.42891 5.50977 7.47543 5.50977 10C5.50978 12.5247 7.55654 14.5711 10.0811 14.5713C11.0876 14.5713 12.0182 14.2456 12.7734 13.6943L11.7832 11.9795C11.3257 12.3733 10.7307 12.6123 10.0811 12.6123C8.64081 12.6121 7.46877 11.4403 7.46875 10C7.46875 8.5598 8.6408 7.38789 10.0811 7.3877L10.9756 5.5166C10.6864 5.45922 10.3872 5.42871 10.0811 5.42871ZM9.88672 11.3057H12.1484L13.2803 13.2656L14.4111 11.3057L13.2803 9.34668H11.0176L9.88672 11.3057ZM12.4307 5.75488C12.2038 5.75488 11.9974 5.81305 11.8076 5.93262C11.6219 6.04824 11.4811 6.19711 11.3945 6.38281L11.791 6.77832C11.9436 6.4692 12.1663 6.31655 12.459 6.31641C12.7067 6.31641 12.8594 6.44468 12.8594 6.62207C12.8593 6.77064 12.7855 6.89464 12.501 7.03906L12.3398 7.11719C11.989 7.29468 11.7458 7.49737 11.6055 7.72852C11.4653 7.95541 11.3946 8.24792 11.3945 8.59863V8.69434H13.4619V8.12793H12.0957C12.1329 7.91355 12.266 7.79434 12.5342 7.6582L12.7852 7.53027C13.2351 7.29923 13.4746 7.03845 13.4746 6.61328C13.4745 6.34519 13.3713 6.135 13.165 5.98242C12.9628 5.82971 12.7154 5.75492 12.4307 5.75488Z" fill="#4C4B53"/>
</svg>
