<svg xmlns="http://www.w3.org/2000/svg" viewBox="0 0 600 600"><path fill="#FFF" d="M428.1 171.4c10.9-12.7 18-26.2 18-40.1 0-23.6-19.5-38.6-43.5-38.6-22.1 0-40.8 14.2-44.2 38.6l-32.6-7.9c6.4-39.7 38.6-64.4 76.8-64.4 42.7 0 76.8 29.2 76.8 72.3 0 23.6-10.9 45.3-26.6 63.3-31.5 36.7-32.2 38.2-66.3 78.3h93.3v33.7h-151v-15l99.3-120.2zM173.2 600C97.3 565.8 44.4 489.4 44.4 400.9c0-120.4 97.9-218.3 218.3-218.3l-.3-118.9c-105.8 0-199.8 49-262.6 125.4V600h173.4zm178.6 0h182.9c40.9-55.9 65.1-124.5 65.1-198.8 0-17.9-1.2-35.2-3.9-52.2H329.2l-.2 122h140.3c-19.6 58-62.6 103.9-117.5 129z"/></svg>