<svg id="Layer_1" xmlns="http://www.w3.org/2000/svg" viewBox="0 0 284.6 120.4"><style>.st0{fill:#fff}</style><path class="st0" d="M275.2 27.3l-13.8-.1c.4-2.2 1.7-3.4 4.4-4.7l2.5-1.3c4.5-2.3 7-4.9 7-9.2 0-2.7-1-4.8-3.1-6.4-2-1.5-4.5-2.3-7.4-2.3-2.3 0-4.4.6-6.3 1.8s-3.3 2.6-4.2 4.5l4 4c1.5-3.1 3.8-4.6 6.7-4.6 2.5 0 4 1.3 4 3.1 0 1.5-.8 2.7-3.6 4.2l-1.6.8c-3.5 1.8-6 3.8-7.4 6.1s-2.1 5.2-2.2 8.8v1l20.8.1.2-5.8z"/><path class="st0" d="M258.1 66c-4.6 3.9-10.6 6.3-17.2 6.3-14.5-.1-26.3-11.9-26.2-26.4.1-13.7 10.6-25 24.1-26.1l11.1-19c-2.8-.6-5.7-.9-8.7-.9-25.4-.1-46.1 20.4-46.2 45.8 0 25.6 20.5 46.2 45.9 46.3 10.1 0 19.5-3.2 27.1-8.7L258.1 66z"/><path class="st0" d="M273.3 39.5h-22.8l-11.4 19.7h22.7L273.2 79l11.4-19.7zM0 39.5h18.7v7.4c5.1-4.9 10.8-7.3 17.1-7.3 7.8 0 13.8 3.3 17.9 9.9 4.2-6.7 10.2-10 17.9-10 2.5 0 4.8.4 7 1.1 2.2.7 4.1 1.9 5.7 3.4s2.8 3.6 3.8 6c.9 2.5 1.4 5.5 1.4 9v33.1H70.8V65.7c0-2.7-.2-4.9-.6-6.6-.4-1.7-.9-3.1-1.6-4s-1.6-1.6-2.5-2c-1-.3-2-.5-3.1-.5-6 0-9 4.4-9 13.1v26.4H35.4v-26c0-2.7-.2-4.9-.5-6.6-.3-1.8-.8-3.1-1.5-4.2-.7-1-1.5-1.7-2.5-2.1-1-.4-2.2-.6-3.6-.6-1.2 0-2.3.2-3.3.5s-1.9 1-2.7 2c-.8 1-1.4 2.4-1.9 4.1-.4 1.8-.7 4-.7 6.9v26H0V39.5zm159.3 0h-14.4l-7.6 13.1h14.6l7.2 12.6 7.4-13.1zm-4 32.3l-7.2-12.6h-5.7l-9 15.3-18.3-35H94.2l29 52.3-16.6 28.6h20.3z"/><circle class="st0" cx="180.8" cy="82.8" r="9.3"/></svg>
